<svg width="22" height="27" viewBox="0 0 22 27" fill="none" xmlns="http://www.w3.org/2000/svg">
<path fill-rule="evenodd" clip-rule="evenodd" d="M14.9724 4.31107C15.9181 3.1703 16.5531 1.58065 16.3797 0C15.0197 0.0551259 13.3737 0.90564 12.3999 2.04641C11.5251 3.05668 10.7595 4.67333 10.9666 6.22248C12.482 6.34061 14.0312 5.45297 14.9747 4.31107H14.9724ZM18.3748 14.344C18.413 18.4301 21.9617 19.7902 22 19.8082C21.9719 19.9038 21.4348 21.7455 20.1311 23.6479C19.0052 25.2927 17.8366 26.9318 15.9947 26.9656C14.1855 26.9982 13.6045 25.8934 11.5352 25.8934C9.46813 25.8934 8.82189 26.9318 7.10834 26.9982C5.33175 27.0657 3.97847 25.2195 2.84136 23.5815C0.522102 20.229 -1.25112 14.1089 1.13006 9.97779C2.31108 7.92576 4.42543 6.62636 6.71992 6.59374C8.46499 6.55998 10.1121 7.76713 11.1783 7.76713C12.2456 7.76713 14.2474 6.31586 16.3516 6.52848C17.2331 6.56561 19.7055 6.88399 21.2941 9.20715C21.1657 9.28591 18.3432 10.9284 18.3736 14.344" fill="#332218"/>
</svg>
