<svg width="11" height="10" viewBox="0 0 11 10" fill="none" xmlns="http://www.w3.org/2000/svg">
<mask id="mask0_476_153" style="mask-type:alpha" maskUnits="userSpaceOnUse" x="0" y="0" width="11" height="10">
<rect x="0.200012" width="10" height="10" fill="#D9D9D9"/>
</mask>
<g mask="url(#mask0_476_153)">
<path d="M1.03333 7.08334V1.25001C1.03333 1.13195 1.07326 1.033 1.15312 0.953135C1.23298 0.873274 1.33194 0.833344 1.44999 0.833344H6.86666C6.98471 0.833344 7.08367 0.873274 7.16353 0.953135C7.24339 1.033 7.28332 1.13195 7.28332 1.25001V5.00001C7.28332 5.11806 7.24339 5.21702 7.16353 5.29688C7.08367 5.37675 6.98471 5.41668 6.86666 5.41668H2.69999L1.03333 7.08334ZM3.11666 7.50001C2.9986 7.50001 2.89964 7.46008 2.81978 7.38022C2.73992 7.30036 2.69999 7.2014 2.69999 7.08334V6.25001H8.11666V2.50001H8.94999C9.06805 2.50001 9.167 2.53994 9.24687 2.6198C9.32673 2.69966 9.36666 2.79862 9.36666 2.91668V9.16668L7.69999 7.50001H3.11666ZM6.44999 1.66668H1.86666V5.07293L2.35624 4.58334H6.44999V1.66668Z" fill="#007AFF"/>
</g>
</svg>
