<svg width="20" height="20" viewBox="0 0 20 20" fill="none" xmlns="http://www.w3.org/2000/svg">
<path d="M5.83325 2.50008V3.33341C5.83325 4.25389 6.57944 5.00008 7.49992 5.00008H12.4999C13.4204 5.00008 14.1666 4.25389 14.1666 3.33341V2.50008H14.9999C15.9204 2.50008 16.6666 3.24627 16.6666 4.16675V13.3334C16.6666 16.0948 14.428 18.3334 11.6666 18.3334H4.99992C4.07944 18.3334 3.33325 17.5872 3.33325 16.6667V4.16675C3.33325 3.24627 4.07944 2.50008 4.99992 2.50008H5.83325ZM9.99992 11.6667H7.49992C7.03969 11.6667 6.66659 12.0398 6.66659 12.5001C6.66659 12.9603 7.03969 13.3334 7.49992 13.3334H9.99992C10.4602 13.3334 10.8333 12.9603 10.8333 12.5001C10.8333 12.0398 10.4602 11.6667 9.99992 11.6667ZM12.4999 8.33341H7.49992C7.03969 8.33341 6.66659 8.7065 6.66659 9.16675C6.66659 9.59412 6.98829 9.94634 7.40274 9.99448L7.49992 10.0001H12.4999C12.9602 10.0001 13.3333 9.627 13.3333 9.16675C13.3333 8.7065 12.9602 8.33341 12.4999 8.33341ZM11.6666 1.66675C12.1268 1.66675 12.4999 2.03985 12.4999 2.50008C12.4999 2.92744 12.1782 3.27967 11.7638 3.32781L11.6666 3.33341H8.33325C7.87302 3.33341 7.49992 2.96031 7.49992 2.50008C7.49992 2.07272 7.82162 1.72049 8.23607 1.67235L8.33325 1.66675H11.6666Z" fill="white"/>
</svg>
