<svg width="20" height="20" viewBox="0 0 20 20" fill="none" xmlns="http://www.w3.org/2000/svg">
<path d="M5.83325 2.50001V3.33334C5.83325 4.25381 6.57944 5.00001 7.49992 5.00001H12.4999C13.4204 5.00001 14.1666 4.25381 14.1666 3.33334V2.50001H14.9999C15.9204 2.50001 16.6666 3.2462 16.6666 4.16667V13.3333C16.6666 16.0948 14.428 18.3333 11.6666 18.3333H4.99992C4.07944 18.3333 3.33325 17.5872 3.33325 16.6667V4.16667C3.33325 3.2462 4.07944 2.50001 4.99992 2.50001H5.83325ZM9.99992 11.6667H7.49992C7.03969 11.6667 6.66659 12.0398 6.66659 12.5C6.66659 12.9603 7.03969 13.3333 7.49992 13.3333H9.99992C10.4602 13.3333 10.8333 12.9603 10.8333 12.5C10.8333 12.0398 10.4602 11.6667 9.99992 11.6667ZM12.4999 8.33334H7.49992C7.03969 8.33334 6.66659 8.70642 6.66659 9.16667C6.66659 9.59405 6.98829 9.94626 7.40274 9.9944L7.49992 10H12.4999C12.9602 10 13.3333 9.62692 13.3333 9.16667C13.3333 8.70642 12.9602 8.33334 12.4999 8.33334ZM11.6666 1.66667C12.1268 1.66667 12.4999 2.03977 12.4999 2.50001C12.4999 2.92736 12.1782 3.27959 11.7638 3.32773L11.6666 3.33334H8.33325C7.87302 3.33334 7.49992 2.96024 7.49992 2.50001C7.49992 2.07265 7.82162 1.72042 8.23607 1.67228L8.33325 1.66667H11.6666Z" fill="white" fill-opacity="0.5"/>
</svg>
