<svg width="17" height="16" viewBox="0 0 17 16" fill="none" xmlns="http://www.w3.org/2000/svg">
<path d="M13.0878 2.66666H7.95129C7.95129 3.28162 8.19559 3.87139 8.63043 4.30623C9.06527 4.74108 9.65504 4.98537 10.27 4.98537H11.2162V5.89889C11.217 7.17832 12.254 8.2153 13.5334 8.21611V3.11228C13.5334 2.86617 13.3339 2.66666 13.0878 2.66666Z" fill="#2684FF"/>
<path d="M10.5464 5.22601H5.40985C5.41067 6.50544 6.44765 7.54242 7.72708 7.54324H8.67328V8.45973C8.67492 9.73916 9.71256 10.7755 10.992 10.7755V5.67163C10.992 5.42552 10.7925 5.22601 10.5464 5.22601Z" fill="url(#paint0_linear_476_170)"/>
<path d="M8.00322 7.78387H2.8667C2.8667 9.06446 3.90482 10.1026 5.18541 10.1026H6.13458V11.0161C6.1354 12.2944 7.17057 13.3309 8.44884 13.3333V8.22949C8.44884 7.98339 8.24933 7.78387 8.00322 7.78387Z" fill="url(#paint1_linear_476_170)"/>
<defs>
<linearGradient id="paint0_linear_476_170" x1="9.74876" y1="4.14881" x2="7.57703" y2="6.41491" gradientUnits="userSpaceOnUse">
<stop offset="0.18" stop-color="#0052CC"/>
<stop offset="1" stop-color="#2684FF"/>
</linearGradient>
<linearGradient id="paint1_linear_476_170" x1="165.442" y1="153.259" x2="72.1404" y2="245.595" gradientUnits="userSpaceOnUse">
<stop offset="0.18" stop-color="#0052CC"/>
<stop offset="1" stop-color="#2684FF"/>
</linearGradient>
</defs>
</svg>
