<svg width="20" height="20" viewBox="0 0 20 20" fill="none" xmlns="http://www.w3.org/2000/svg">
<path opacity="0.5" d="M9.99992 2.5C10.4602 2.5 10.8333 2.8731 10.8333 3.33333C10.8333 3.76069 10.5116 4.11292 10.0971 4.16106L9.99992 4.16667H5.83325C5.40589 4.16667 5.05366 4.48837 5.00552 4.90282L4.99992 5V15C4.99992 15.4274 5.32162 15.7796 5.73607 15.8277L5.83325 15.8333H9.58325C10.0435 15.8333 10.4166 16.2064 10.4166 16.6667C10.4166 17.094 10.0949 17.4463 9.68044 17.4944L9.58325 17.5H5.83325C4.50185 17.5 3.41353 16.4593 3.3375 15.1469L3.33325 15V5C3.33325 3.6686 4.37402 2.58028 5.68636 2.50424L5.83325 2.5H9.99992ZM14.7558 7.05372L17.1128 9.41075C17.4383 9.73617 17.4383 10.2638 17.1128 10.5892L14.7558 12.9462C14.4303 13.2717 13.9028 13.2717 13.5773 12.9462C13.2518 12.6208 13.2518 12.0932 13.5773 11.7677L14.5118 10.8333H9.99992C9.53967 10.8333 9.16658 10.4602 9.16658 10C9.16658 9.53975 9.53967 9.16667 9.99992 9.16667H14.5118L13.5773 8.23223C13.2518 7.9068 13.2518 7.37916 13.5773 7.05372C13.9028 6.72828 14.4303 6.72828 14.7558 7.05372Z" fill="white"/>
</svg>
