
<svg width="18" height="16" viewBox="0 0 18 16" fill="none" xmlns="http://www.w3.org/2000/svg">
<path fill-rule="evenodd" clip-rule="evenodd" d="M7.30406 0.340678C6.99666 0.119403 6.56307 0.0159193 6.13664 0.171944C5.22225 0.506503 4.38345 0.996328 3.652 1.609C3.30443 1.90013 3.17731 2.3267 3.21503 2.70326C3.27786 3.33059 3.16713 3.9363 2.8657 4.45839C2.56412 4.98074 2.09461 5.37963 1.51953 5.63887C1.17391 5.79468 0.867365 6.11894 0.789673 6.56675C0.708806 7.033 0.666748 7.51192 0.666748 8.00009C0.666748 8.48817 0.708806 8.96717 0.789681 9.43334C0.867373 9.88117 1.17391 10.2054 1.51954 10.3613C2.09461 10.6205 2.56412 11.0194 2.8657 11.5418C3.16712 12.0638 3.27785 12.6695 3.21503 13.2968C3.17732 13.6734 3.30444 14.1 3.652 14.3911C4.38343 15.0038 5.22221 15.4936 6.13656 15.8281C6.56301 15.9842 6.99662 15.8807 7.30403 15.6593C7.81625 15.2907 8.39666 15.0833 9.00008 15.0833C9.6035 15.0833 10.1839 15.2907 10.6962 15.6593C11.0036 15.8807 11.4372 15.9842 11.8636 15.8281C12.7779 15.4936 13.6167 15.0038 14.3481 14.3912C14.6957 14.1 14.8227 13.6734 14.7851 13.2968C14.7222 12.6695 14.8329 12.0638 15.1343 11.5418C15.4359 11.0194 15.9055 10.6205 16.4806 10.3613C16.8262 10.2054 17.1328 9.88117 17.2105 9.43334C17.2913 8.96717 17.3334 8.48817 17.3334 8.00009C17.3334 7.512 17.2913 7.03309 17.2105 6.56692C17.1328 6.11907 16.8262 5.79479 16.4806 5.63899C15.9055 5.37974 15.4359 4.98085 15.1343 4.4585C14.8329 3.93639 14.7222 3.33064 14.7851 2.70327C14.8228 2.32669 14.6957 1.90009 14.3481 1.60894C13.6167 0.996303 12.7779 0.506494 11.8635 0.171944C11.4371 0.0159277 11.0035 0.119403 10.6961 0.340678C10.1839 0.709361 9.6035 0.916694 9.00008 0.916694C8.39666 0.916694 7.81625 0.709361 7.30406 0.340678ZM6.50008 8C6.50008 6.61925 7.61933 5.5 9.00008 5.5C10.3808 5.5 11.5001 6.61925 11.5001 8C11.5001 9.38075 10.3808 10.5 9.00008 10.5C7.61933 10.5 6.50008 9.38075 6.50008 8Z" fill="white"/>
</svg>
