<svg width="17" height="16" viewBox="0 0 17 16" fill="none" xmlns="http://www.w3.org/2000/svg">
<path d="M13.0462 7.53836C13.6834 7.53836 14.2 7.02181 14.2 6.38461C14.2 5.74741 13.6834 5.23086 13.0462 5.23086C12.4089 5.23086 11.8923 5.74746 11.8923 6.38471V7.53836H13.0462ZM9.81535 7.53836C10.4526 7.53836 10.9692 7.02176 10.9692 6.38451V3.15394C10.9692 2.51669 10.4526 2.00009 9.81535 2.00009C9.17809 2.00009 8.6615 2.51669 8.6615 3.15394V6.38451C8.6615 7.02176 9.17809 7.53836 9.81535 7.53836Z" fill="#2EB67D"/>
<path d="M3.35369 8.46164C2.71649 8.46164 2.19994 8.97819 2.19994 9.61539C2.19994 10.2526 2.71654 10.7691 3.35374 10.7691C3.99099 10.7691 4.50763 10.2525 4.50763 9.61529V8.46164H3.35369ZM6.58456 8.46164C5.94731 8.46164 5.43071 8.97824 5.43071 9.61549V12.8461C5.43071 13.4833 5.94731 13.9999 6.58456 13.9999C7.22181 13.9999 7.7384 13.4833 7.7384 12.8461V9.61549C7.7384 8.97824 7.22181 8.46164 6.58456 8.46164Z" fill="#E01E5A"/>
<path d="M8.66157 12.8463C8.66157 13.4835 9.17811 14 9.81531 14C10.4525 14 10.9691 13.4834 10.9691 12.8462C10.9691 12.209 10.4525 11.6923 9.81521 11.6923L8.66157 11.6923L8.66157 12.8463ZM8.66157 9.61539C8.66157 10.2526 9.17816 10.7692 9.81541 10.7692L13.046 10.7692C13.6832 10.7692 14.1998 10.2526 14.1998 9.61539C14.1998 8.97814 13.6832 8.46155 13.046 8.46155L9.81541 8.46155C9.17816 8.46155 8.66157 8.97814 8.66157 9.61539Z" fill="#ECB22E"/>
<path d="M7.73834 3.15374C7.73834 2.51654 7.22179 1.99999 6.58459 1.99999C5.94739 1.99999 5.43084 2.51659 5.43084 3.15379C5.43084 3.79104 5.94744 4.30768 6.58469 4.30768L7.73834 4.30768L7.73834 3.15374ZM7.73834 6.38461C7.73834 5.74735 7.22174 5.23076 6.58449 5.23076L3.35392 5.23076C2.71667 5.23076 2.20007 5.74735 2.20007 6.38461C2.20007 7.02186 2.71667 7.53845 3.35392 7.53845L6.58449 7.53845C7.22174 7.53845 7.73834 7.02186 7.73834 6.38461Z" fill="#36C5F0"/>
</svg>
