<svg width="17" height="17" viewBox="0 0 17 17" fill="none" xmlns="http://www.w3.org/2000/svg">
<path d="M9.5332 4.49984V3.16651H6.86654V4.49984H9.5332ZM2.86654 5.83318V13.1665H13.5332V5.83318H2.86654ZM13.5332 4.49984C14.2732 4.49984 14.8665 5.09318 14.8665 5.83318V13.1665C14.8665 13.9065 14.2732 14.4998 13.5332 14.4998H2.86654C2.12654 14.4998 1.5332 13.9065 1.5332 13.1665L1.53987 5.83318C1.53987 5.09318 2.12654 4.49984 2.86654 4.49984H5.5332V3.16651C5.5332 2.42651 6.12654 1.83318 6.86654 1.83318H9.5332C10.2732 1.83318 10.8665 2.42651 10.8665 3.16651V4.49984H13.5332Z" fill="#007AFF"/>
</svg>
