<svg width="50" height="50" viewBox="0 0 50 50" fill="none" xmlns="http://www.w3.org/2000/svg">
<path d="M33.3335 22.9167C36.7918 22.9167 39.5627 20.125 39.5627 16.6667C39.5627 13.2084 36.7918 10.4167 33.3335 10.4167C29.8752 10.4167 27.0835 13.2084 27.0835 16.6667C27.0835 20.125 29.8752 22.9167 33.3335 22.9167ZM16.6668 22.9167C20.1252 22.9167 22.896 20.125 22.896 16.6667C22.896 13.2084 20.1252 10.4167 16.6668 10.4167C13.2085 10.4167 10.4168 13.2084 10.4168 16.6667C10.4168 20.125 13.2085 22.9167 16.6668 22.9167ZM16.6668 27.0834C11.8127 27.0834 2.0835 29.5209 2.0835 34.375V39.5834H31.2502V34.375C31.2502 29.5209 21.521 27.0834 16.6668 27.0834ZM33.3335 27.0834C32.7293 27.0834 32.0418 27.125 31.3127 27.1875C33.7293 28.9375 35.4168 31.2917 35.4168 34.375V39.5834H47.9168V34.375C47.9168 29.5209 38.1877 27.0834 33.3335 27.0834Z" fill="#2684FF"/>
</svg>
