<svg width="16" height="16" viewBox="0 0 16 16" fill="none" xmlns="http://www.w3.org/2000/svg">
<path d="M9.57495 1.12497H5.82495V2.37497H9.57495V1.12497ZM7.07495 9.24997H8.32495V5.49997H7.07495V9.24997ZM12.0937 5.11872L12.9812 4.23122C12.7125 3.91247 12.4187 3.61247 12.1 3.34997L11.2125 4.23747C10.2437 3.46247 9.02495 2.99997 7.69995 2.99997C4.5937 2.99997 2.07495 5.51872 2.07495 8.62497C2.07495 11.7312 4.58745 14.25 7.69995 14.25C10.8125 14.25 13.325 11.7312 13.325 8.62497C13.325 7.29997 12.8625 6.08122 12.0937 5.11872ZM7.69995 13C5.2812 13 3.32495 11.0437 3.32495 8.62497C3.32495 6.20622 5.2812 4.24997 7.69995 4.24997C10.1187 4.24997 12.075 6.20622 12.075 8.62497C12.075 11.0437 10.1187 13 7.69995 13Z" fill="#434343"/>
</svg>
