<svg width="32" height="32" viewBox="0 0 32 32" fill="none" xmlns="http://www.w3.org/2000/svg">
<path d="M0 12.8C0 8.31958 0 6.07937 0.871948 4.36808C1.63893 2.86278 2.86278 1.63893 4.36808 0.871948C6.07937 0 8.31958 0 12.8 0H19.2C23.6804 0 25.9206 0 27.6319 0.871948C29.1372 1.63893 30.3611 2.86278 31.1281 4.36808C32 6.07937 32 8.31958 32 12.8V19.2C32 23.6804 32 25.9206 31.1281 27.6319C30.3611 29.1372 29.1372 30.3611 27.6319 31.1281C25.9206 32 23.6804 32 19.2 32H12.8C8.31958 32 6.07937 32 4.36808 31.1281C2.86278 30.3611 1.63893 29.1372 0.871948 27.6319C0 25.9206 0 23.6804 0 19.2V12.8Z" fill="#F4F4F4"/>
<path fill-rule="evenodd" clip-rule="evenodd" d="M19.4999 19H19.7499C20.5517 18.9949 21.3233 18.6936 21.9164 18.154C22.5095 17.6145 22.8822 16.8747 22.9629 16.0769C23.0435 15.2792 22.8264 14.4798 22.3533 13.8324C21.8802 13.1851 21.1845 12.7354 20.3999 12.57C20.1841 11.5633 19.6295 10.661 18.8288 10.0137C18.028 9.36648 17.0296 9.0134 15.9999 9.0134C14.9703 9.0134 13.9718 9.36648 13.1711 10.0137C12.3703 10.661 11.8158 11.5633 11.5999 12.57C10.8154 12.7354 10.1197 13.1851 9.64656 13.8324C9.17345 14.4798 8.95635 15.2792 9.03699 16.0769C9.11764 16.8747 9.49033 17.6145 10.0834 18.154C10.6765 18.6936 11.4481 18.9949 12.2499 19H12.4999V18H12.2499C11.6532 18.0239 11.0714 17.8097 10.6326 17.4046C10.1937 16.9996 9.9338 16.4367 9.90993 15.84C9.88606 15.2433 10.1002 14.6615 10.5053 14.2226C10.9104 13.7838 11.4732 13.5239 12.0699 13.5H12.4999L12.5099 13.09C12.6209 12.2482 13.034 11.4755 13.6724 10.9157C14.3108 10.3559 15.1309 10.0473 15.9799 10.0473C16.829 10.0473 17.6491 10.3559 18.2875 10.9157C18.9259 11.4755 19.339 12.2482 19.4499 13.09L19.4999 13.5H19.9299C20.5267 13.5239 21.0895 13.7838 21.4946 14.2226C21.8996 14.6615 22.1138 15.2433 22.0899 15.84C22.0661 16.4367 21.8061 16.9996 21.3673 17.4046C20.9284 17.8097 20.3467 18.0239 19.7499 18H19.4999V19ZM14.2049 17.705L13.4999 17L15.9999 14.5L18.4999 17L17.7949 17.705L16.4999 16.415V22.5H15.4999V16.415L14.2049 17.705Z" fill="#161616"/>
</svg>
