<svg width="11" height="10" viewBox="0 0 11 10" fill="none" xmlns="http://www.w3.org/2000/svg">
<path d="M4.7832 2.91666H5.61654V3.74999H4.7832V2.91666ZM4.7832 4.58333H5.61654V7.08333H4.7832V4.58333ZM5.19987 0.833328C2.89987 0.833328 1.0332 2.69999 1.0332 4.99999C1.0332 7.29999 2.89987 9.16666 5.19987 9.16666C7.49987 9.16666 9.36654 7.29999 9.36654 4.99999C9.36654 2.69999 7.49987 0.833328 5.19987 0.833328ZM5.19987 8.33333C3.36237 8.33333 1.86654 6.83749 1.86654 4.99999C1.86654 3.16249 3.36237 1.66666 5.19987 1.66666C7.03737 1.66666 8.5332 3.16249 8.5332 4.99999C8.5332 6.83749 7.03737 8.33333 5.19987 8.33333Z" fill="#ECB22E"/>
</svg>
