<svg width="14" height="18" viewBox="0 0 14 18" fill="none" xmlns="http://www.w3.org/2000/svg">
<path d="M2.83325 1.49999V2.33332C2.83325 3.2538 3.57944 3.99999 4.49992 3.99999H9.49992C10.4204 3.99999 11.1666 3.2538 11.1666 2.33332V1.49999H11.9999C12.9204 1.49999 13.6666 2.24618 13.6666 3.16666V12.3333C13.6666 15.0947 11.428 17.3333 8.66658 17.3333H1.99992C1.07944 17.3333 0.333252 16.5872 0.333252 15.6667V3.16666C0.333252 2.24618 1.07944 1.49999 1.99992 1.49999H2.83325ZM6.99992 10.6667H4.49992C4.03969 10.6667 3.66659 11.0397 3.66659 11.5C3.66659 11.9602 4.03969 12.3333 4.49992 12.3333H6.99992C7.46017 12.3333 7.83325 11.9602 7.83325 11.5C7.83325 11.0397 7.46017 10.6667 6.99992 10.6667ZM9.49992 7.33332H4.49992C4.03969 7.33332 3.66659 7.70641 3.66659 8.16666C3.66659 8.59403 3.98829 8.94625 4.40274 8.99438L4.49992 8.99999H9.49992C9.96017 8.99999 10.3333 8.62691 10.3333 8.16666C10.3333 7.70641 9.96017 7.33332 9.49992 7.33332ZM8.66658 0.666656C9.12683 0.666656 9.49992 1.03976 9.49992 1.49999C9.49992 1.92735 9.17823 2.27958 8.76377 2.32772L8.66658 2.33332H5.33325C4.87302 2.33332 4.49992 1.96022 4.49992 1.49999C4.49992 1.07263 4.82162 0.720401 5.23607 0.672263L5.33325 0.666656H8.66658Z" fill="white"/>
</svg>
