<svg width="300" height="60" viewBox="0 0 300 60" fill="none" xmlns="http://www.w3.org/2000/svg">
<rect x="16" y="18" width="24" height="24" fill="white" fill-opacity="0.01"/>
<path d="M17.9493 21.9117C17.9733 21.4808 18.4307 21.2154 18.8168 21.4084L23.6527 23.8263C23.864 23.932 23.9937 24.1519 23.9838 24.388L23.5153 35.6338C23.5059 35.8586 23.3715 36.0593 23.1672 36.1536L17.9059 38.5819C17.4951 38.7715 17.0302 38.4556 17.0553 38.0039L17.9493 21.9117Z" fill="#007AFF"/>
<path d="M38.0507 21.9117C38.0267 21.4808 37.5693 21.2154 37.1832 21.4084L32.3473 23.8263C32.136 23.932 32.0063 24.1519 32.0162 24.388L32.4847 35.6338C32.4941 35.8586 32.6285 36.0593 32.8328 36.1536L38.0941 38.5819C38.5049 38.7715 38.9698 38.4556 38.9447 38.0039L38.0507 21.9117Z" fill="#FDAD15"/>
<path d="M24.9691 24.7734C24.9836 24.4106 25.3676 24.1838 25.6923 24.3461L27.5528 25.2764C27.8343 25.4172 28.1657 25.4172 28.4472 25.2764L30.3077 24.3461C30.6324 24.1838 31.0164 24.4107 31.0309 24.7734L31.4784 35.9603C31.4919 36.2971 31.3348 36.618 31.0604 36.814L28.3487 38.7509C28.1401 38.8999 27.8599 38.8999 27.6513 38.7509L24.9396 36.814C24.6652 36.618 24.5081 36.2971 24.5216 35.9603L24.9691 24.7734Z" fill="#2AC670"/>
<path d="M60.712 23.49V25.164H55.402V28.854H59.542V30.528H55.402V36H53.35V23.49H60.712ZM64.6657 22.68V36H62.6137V22.68H64.6657ZM68.4038 24.768C68.0318 24.768 67.7198 24.642 67.4678 24.39C67.2158 24.138 67.0898 23.826 67.0898 23.454C67.0898 23.082 67.2158 22.77 67.4678 22.518C67.7198 22.266 68.0318 22.14 68.4038 22.14C68.7638 22.14 69.0698 22.266 69.3218 22.518C69.5738 22.77 69.6998 23.082 69.6998 23.454C69.6998 23.826 69.5738 24.138 69.3218 24.39C69.0698 24.642 68.7638 24.768 68.4038 24.768ZM69.4118 26.082V36H67.3598V26.082H69.4118ZM74.1579 27.54C74.5059 27.084 74.9799 26.7 75.5799 26.388C76.1799 26.076 76.8579 25.92 77.6139 25.92C78.4779 25.92 79.2639 26.136 79.9719 26.568C80.6919 26.988 81.2559 27.582 81.6639 28.35C82.0719 29.118 82.2759 30 82.2759 30.996C82.2759 31.992 82.0719 32.886 81.6639 33.678C81.2559 34.458 80.6919 35.07 79.9719 35.514C79.2639 35.946 78.4779 36.162 77.6139 36.162C76.8579 36.162 76.1859 36.012 75.5979 35.712C75.0099 35.4 74.5299 35.016 74.1579 34.56V40.716H72.1059V26.082H74.1579V27.54ZM80.1879 30.996C80.1879 30.312 80.0439 29.724 79.7559 29.232C79.4799 28.728 79.1079 28.35 78.6399 28.098C78.1839 27.834 77.6919 27.702 77.1639 27.702C76.6479 27.702 76.1559 27.834 75.6879 28.098C75.2319 28.362 74.8599 28.746 74.5719 29.25C74.2959 29.754 74.1579 30.348 74.1579 31.032C74.1579 31.716 74.2959 32.316 74.5719 32.832C74.8599 33.336 75.2319 33.72 75.6879 33.984C76.1559 34.248 76.6479 34.38 77.1639 34.38C77.6919 34.38 78.1839 34.248 78.6399 33.984C79.1079 33.708 79.4799 33.312 79.7559 32.796C80.0439 32.28 80.1879 31.68 80.1879 30.996ZM86.3571 27.522C86.6571 27.018 87.0531 26.628 87.5451 26.352C88.0491 26.064 88.6431 25.92 89.3271 25.92V28.044H88.8051C88.0011 28.044 87.3891 28.248 86.9691 28.656C86.5611 29.064 86.3571 29.772 86.3571 30.78V36H84.3051V26.082H86.3571V27.522ZM100.011 36.126C99.1711 36.126 98.4151 35.982 97.7431 35.694C97.0711 35.394 96.5431 34.974 96.1591 34.434C95.7751 33.894 95.5831 33.264 95.5831 32.544H97.7791C97.8271 33.084 98.0371 33.528 98.4091 33.876C98.7931 34.224 99.3271 34.398 100.011 34.398C100.719 34.398 101.271 34.23 101.667 33.894C102.063 33.546 102.261 33.102 102.261 32.562C102.261 32.142 102.135 31.8 101.883 31.536C101.643 31.272 101.337 31.068 100.965 30.924C100.605 30.78 100.101 30.624 99.4531 30.456C98.6371 30.24 97.9711 30.024 97.4551 29.808C96.9511 29.58 96.5191 29.232 96.1591 28.764C95.7991 28.296 95.6191 27.672 95.6191 26.892C95.6191 26.172 95.7991 25.542 96.1591 25.002C96.5191 24.462 97.0231 24.048 97.6711 23.76C98.3191 23.472 99.0691 23.328 99.9211 23.328C101.133 23.328 102.123 23.634 102.891 24.246C103.671 24.846 104.103 25.674 104.187 26.73H101.919C101.883 26.274 101.667 25.884 101.271 25.56C100.875 25.236 100.353 25.074 99.7051 25.074C99.1171 25.074 98.6371 25.224 98.2651 25.524C97.8931 25.824 97.7071 26.256 97.7071 26.82C97.7071 27.204 97.8211 27.522 98.0491 27.774C98.2891 28.014 98.5891 28.206 98.9491 28.35C99.3091 28.494 99.8011 28.65 100.425 28.818C101.253 29.046 101.925 29.274 102.441 29.502C102.969 29.73 103.413 30.084 103.773 30.564C104.145 31.032 104.331 31.662 104.331 32.454C104.331 33.09 104.157 33.69 103.809 34.254C103.473 34.818 102.975 35.274 102.315 35.622C101.667 35.958 100.899 36.126 100.011 36.126ZM109.146 27.756V33.246C109.146 33.618 109.23 33.888 109.398 34.056C109.578 34.212 109.878 34.29 110.298 34.29H111.558V36H109.938C109.014 36 108.306 35.784 107.814 35.352C107.322 34.92 107.076 34.218 107.076 33.246V27.756H105.906V26.082H107.076V23.616H109.146V26.082H111.558V27.756H109.146ZM122.432 26.082V36H120.38V34.83C120.056 35.238 119.63 35.562 119.102 35.802C118.586 36.03 118.034 36.144 117.446 36.144C116.666 36.144 115.964 35.982 115.34 35.658C114.728 35.334 114.242 34.854 113.882 34.218C113.534 33.582 113.36 32.814 113.36 31.914V26.082H115.394V31.608C115.394 32.496 115.616 33.18 116.06 33.66C116.504 34.128 117.11 34.362 117.878 34.362C118.646 34.362 119.252 34.128 119.696 33.66C120.152 33.18 120.38 32.496 120.38 31.608V26.082H122.432ZM124.455 30.996C124.455 30 124.659 29.118 125.067 28.35C125.487 27.582 126.051 26.988 126.759 26.568C127.479 26.136 128.277 25.92 129.153 25.92C129.801 25.92 130.437 26.064 131.061 26.352C131.697 26.628 132.201 27 132.573 27.468V22.68H134.643V36H132.573V34.506C132.237 34.986 131.769 35.382 131.169 35.694C130.581 36.006 129.903 36.162 129.135 36.162C128.271 36.162 127.479 35.946 126.759 35.514C126.051 35.07 125.487 34.458 125.067 33.678C124.659 32.886 124.455 31.992 124.455 30.996ZM132.573 31.032C132.573 30.348 132.429 29.754 132.141 29.25C131.865 28.746 131.499 28.362 131.043 28.098C130.587 27.834 130.095 27.702 129.567 27.702C129.039 27.702 128.547 27.834 128.091 28.098C127.635 28.35 127.263 28.728 126.975 29.232C126.699 29.724 126.561 30.312 126.561 30.996C126.561 31.68 126.699 32.28 126.975 32.796C127.263 33.312 127.635 33.708 128.091 33.984C128.559 34.248 129.051 34.38 129.567 34.38C130.095 34.38 130.587 34.248 131.043 33.984C131.499 33.72 131.865 33.336 132.141 32.832C132.429 32.316 132.573 31.716 132.573 31.032ZM146.428 30.798C146.428 31.17 146.404 31.506 146.356 31.806H138.778C138.838 32.598 139.132 33.234 139.66 33.714C140.188 34.194 140.836 34.434 141.604 34.434C142.708 34.434 143.488 33.972 143.944 33.048H146.158C145.858 33.96 145.312 34.71 144.52 35.298C143.74 35.874 142.768 36.162 141.604 36.162C140.656 36.162 139.804 35.952 139.048 35.532C138.304 35.1 137.716 34.5 137.284 33.732C136.864 32.952 136.654 32.052 136.654 31.032C136.654 30.012 136.858 29.118 137.266 28.35C137.686 27.57 138.268 26.97 139.012 26.55C139.768 26.13 140.632 25.92 141.604 25.92C142.54 25.92 143.374 26.124 144.106 26.532C144.838 26.94 145.408 27.516 145.816 28.26C146.224 28.992 146.428 29.838 146.428 30.798ZM144.286 30.15C144.274 29.394 144.004 28.788 143.476 28.332C142.948 27.876 142.294 27.648 141.514 27.648C140.806 27.648 140.2 27.876 139.696 28.332C139.192 28.776 138.892 29.382 138.796 30.15H144.286ZM153.452 25.92C154.232 25.92 154.928 26.082 155.54 26.406C156.164 26.73 156.65 27.21 156.998 27.846C157.346 28.482 157.52 29.25 157.52 30.15V36H155.486V30.456C155.486 29.568 155.264 28.89 154.82 28.422C154.376 27.942 153.77 27.702 153.002 27.702C152.234 27.702 151.622 27.942 151.166 28.422C150.722 28.89 150.5 29.568 150.5 30.456V36H148.448V26.082H150.5V27.216C150.836 26.808 151.262 26.49 151.778 26.262C152.306 26.034 152.864 25.92 153.452 25.92ZM162.531 27.756V33.246C162.531 33.618 162.615 33.888 162.783 34.056C162.963 34.212 163.263 34.29 163.683 34.29H164.943V36H163.323C162.399 36 161.691 35.784 161.199 35.352C160.707 34.92 160.461 34.218 160.461 33.246V27.756H159.291V26.082H160.461V23.616H162.531V26.082H164.943V27.756H162.531Z" fill="white"/>
</svg>
